<?xml version="1.0" encoding="UTF-8"?>
<svg version="1.1" xmlns="http://www.w3.org/2000/svg" width="512" height="512">
<path d="M0 0 C1.01790619 0.00215515 2.03581238 0.0043103 3.08456421 0.00653076 C17.69363523 0.05620146 32.02575853 0.30709809 46.375 3.3125 C47.34985352 3.51117676 48.32470703 3.70985352 49.32910156 3.91455078 C97.7109774 14.03517194 141.69928269 35.9516877 177.375 70.3125 C178.3640332 71.26068604 178.3640332 71.26068604 179.37304688 72.22802734 C188.86130305 81.37247479 197.6012044 90.66984009 205.375 101.3125 C206.23306152 102.46355017 207.09113451 103.61459177 207.94921875 104.765625 C213.98736829 112.95680614 219.34595521 121.47054105 224.375 130.3125 C224.73948242 130.94430176 225.10396484 131.57610352 225.47949219 132.22705078 C247.08534998 169.97532572 256.85198095 212.74189997 256.6875 255.9375 C256.68534485 256.95540619 256.6831897 257.97331238 256.68096924 259.02206421 C256.63129854 273.63113523 256.38040191 287.96325853 253.375 302.3125 C253.07698486 303.77478027 253.07698486 303.77478027 252.77294922 305.26660156 C242.65232806 353.6484774 220.7358123 397.63678269 186.375 433.3125 C185.74287598 433.97185547 185.11075195 434.63121094 184.45947266 435.31054688 C175.31502521 444.79880305 166.01765991 453.5387044 155.375 461.3125 C154.22394983 462.17056152 153.07290823 463.02863451 151.921875 463.88671875 C143.73224019 469.92427396 135.22961724 475.30707302 126.375 480.3125 C125.66778809 480.7146875 124.96057617 481.116875 124.23193359 481.53125 C101.09654164 494.5566741 75.92537591 503.30551461 49.9375 508.625 C49.21860596 508.77235596 48.49971191 508.91971191 47.7590332 509.0715332 C33.08339502 511.86090125 18.55831162 512.66142619 3.64770508 512.62817383 C0.70811513 512.6250221 -2.2304558 512.64854926 -5.16992188 512.67382812 C-18.54306192 512.71848737 -31.43916711 511.51301542 -44.625 509.3125 C-46.33055054 509.03031616 -46.33055054 509.03031616 -48.07055664 508.74243164 C-91.33802759 500.97044532 -132.38793216 480.98345309 -165.625 452.3125 C-166.37007813 451.67828125 -167.11515625 451.0440625 -167.8828125 450.390625 C-181.38779833 438.57948485 -194.05918743 425.82889772 -204.625 411.3125 C-205.48149066 410.16255169 -206.33826433 409.01281411 -207.1953125 407.86328125 C-213.23534209 399.67315742 -218.61867614 391.16870382 -223.625 382.3125 C-224.0271875 381.60528809 -224.429375 380.89807617 -224.84375 380.16943359 C-237.8691741 357.03404164 -246.61801461 331.86287591 -251.9375 305.875 C-252.08485596 305.15610596 -252.23221191 304.43721191 -252.3840332 303.6965332 C-255.35789088 288.05024391 -255.99800362 272.57681954 -255.9375 256.6875 C-255.93534485 255.66959381 -255.9331897 254.65168762 -255.93096924 253.60293579 C-255.88129854 238.99386477 -255.63040191 224.66174147 -252.625 210.3125 C-252.42632324 209.33764648 -252.22764648 208.36279297 -252.02294922 207.35839844 C-241.90232806 158.9765226 -219.9858123 114.98821731 -185.625 79.3125 C-184.99287598 78.65314453 -184.36075195 77.99378906 -183.70947266 77.31445312 C-174.56502521 67.82619695 -165.26765991 59.0862956 -154.625 51.3125 C-153.47394983 50.45443848 -152.32290823 49.59636549 -151.171875 48.73828125 C-142.98224019 42.70072604 -134.47961724 37.31792698 -125.625 32.3125 C-124.91778809 31.9103125 -124.21057617 31.508125 -123.48193359 31.09375 C-100.34654164 18.0683259 -75.17537591 9.31948539 -49.1875 4 C-48.46860596 3.85264404 -47.74971191 3.70528809 -47.0090332 3.5534668 C-31.36274391 0.57960912 -15.88931954 -0.06050362 0 0 Z " fill="#00B42B" transform="translate(255.625,-0.3125)"/>
<path d="M0 0 C0.67708008 0.20850586 1.35416016 0.41701172 2.05175781 0.63183594 C25.56929744 7.90780576 49.04593495 18.46949623 69 33 C69.99 33.71800781 70.98 34.43601563 72 35.17578125 C114.80226143 66.78612483 146.81096085 108.28713971 164 159 C164.39316406 160.12535156 164.78632813 161.25070313 165.19140625 162.41015625 C173.40949736 187.38670765 176.27199828 213.07730431 176.25 239.25 C176.24940582 240.04134338 176.24881165 240.83268677 176.24819946 241.64801025 C176.20768111 255.73409539 176.20768111 255.73409539 175 262 C171.7499403 260.57021014 169.56249332 258.82476762 167.04217529 256.33651733 C166.26572159 255.57437424 165.48926788 254.81223114 164.68928528 254.0269928 C163.84661606 253.18970139 163.00394684 252.35240997 162.13574219 251.48974609 C161.24092636 250.60807266 160.34611053 249.72639923 159.42417908 248.81800842 C156.45788003 245.89371895 153.50218231 242.95882771 150.546875 240.0234375 C149.52433989 239.00900385 148.50173875 237.99463675 147.47907257 236.98033524 C142.66739964 232.20677072 137.86057309 227.42839042 133.05958915 222.64407575 C127.54504295 217.14899764 122.01442049 211.67080824 116.46920085 206.20668924 C112.16856202 201.966769 107.88376972 197.71123219 103.61009145 193.44414008 C101.0653004 190.90401046 98.51457968 188.37067782 95.94680023 185.85377121 C84.89749202 175.01228281 75.99798757 165.39580866 70 151 C64.61658028 141.17266596 57.88693909 132.90900046 50 125 C49.17113281 124.14792969 48.34226562 123.29585937 47.48828125 122.41796875 C35.79620073 111.04818141 21.3383807 103.26033256 6 98 C4.33517578 97.41798828 4.33517578 97.41798828 2.63671875 96.82421875 C-12.61402957 91.80151721 -27.45823703 91.67474504 -43.3515625 91.6640625 C-45.61917196 91.65762027 -47.88678062 91.6508909 -50.15438843 91.64389038 C-54.89314701 91.63196629 -59.63183296 91.62820446 -64.37060547 91.62939453 C-70.39170352 91.62959729 -76.41232735 91.60231709 -82.43331337 91.56785011 C-87.11443142 91.54542343 -91.79543824 91.54156181 -96.47660446 91.54261398 C-98.69378668 91.54028083 -100.91097307 91.53158924 -103.12810135 91.51594925 C-120.47418659 91.40504716 -137.11599116 92.81681724 -153.25 99.6875 C-154.07443604 100.02998779 -154.89887207 100.37247559 -155.74829102 100.7253418 C-169.15254291 106.4637167 -180.26535124 114.20518369 -191 124 C-192.08861328 124.96486328 -192.08861328 124.96486328 -193.19921875 125.94921875 C-212.12485989 143.64642071 -225.84863283 172.41232457 -227.10986328 198.25073242 C-227.9569425 233.66077943 -218.87224396 265.41753787 -194.26171875 291.703125 C-181.74874166 304.41060433 -166.36243094 314.99077569 -149.28442383 320.59423828 C-148.48023514 320.85907013 -147.67604645 321.12390198 -146.8474884 321.39675903 C-146.23781723 321.59582855 -145.62814606 321.79489807 -145 322 C-144.99453156 323.70222717 -144.99453156 323.70222717 -144.98895264 325.43884277 C-144.95196097 336.14987471 -144.89414248 346.86062026 -144.81609726 357.57143402 C-144.77664117 363.07758247 -144.74444339 368.58357143 -144.72900391 374.08984375 C-144.71382522 379.40685298 -144.67935763 384.72342369 -144.63169098 390.04023743 C-144.61688977 392.06549766 -144.60895971 394.0908205 -144.60811615 396.11613464 C-144.60574098 398.96005635 -144.57861685 401.80277162 -144.54589844 404.64648438 C-144.5509288 405.47799011 -144.55595917 406.30949585 -144.56114197 407.16619873 C-144.43773104 414.1302732 -142.45167553 419.41928892 -137.625 424.5 C-133.55068213 426.18592463 -131.90029748 425.81847952 -127.60644531 425.34399414 C-120.34310557 425.2911807 -116.70431014 427.78022585 -111.74652481 432.651124 C-110.03015882 434.41057952 -108.3516154 436.20169951 -106.671875 437.99609375 C-105.46674429 439.22992801 -104.25836964 440.4606013 -103.04693604 441.68824768 C-99.885747 444.90819573 -96.76846913 448.16746 -93.65936279 451.43762207 C-90.47841036 454.76937054 -87.25986773 458.06433591 -84.04296875 461.36132812 C-80.43360948 465.0625179 -76.82827437 468.76680949 -73.25311279 472.50108337 C-72.71156052 473.06555679 -72.17000824 473.63003021 -71.61204529 474.21160889 C-70.60031489 475.26729483 -69.59073374 476.3250463 -68.58369446 477.38520813 C-66.06209338 480.04173066 -66.06209338 480.04173066 -63 482 C-63 482.66 -63 483.32 -63 484 C-121.19318723 485.47181213 -177.18938852 468.36719596 -223 432 C-223.86109375 431.33097656 -224.7221875 430.66195313 -225.609375 429.97265625 C-261.88219936 401.15829725 -288.92269223 362.79821914 -304.25244141 319.10888672 C-305.19618383 316.44655913 -306.22873135 313.82088622 -307.25 311.1875 C-311.11016286 300.31809405 -313.26820918 289.09262207 -315.1875 277.75 C-315.35443359 276.76878174 -315.52136719 275.78756348 -315.69335938 274.77661133 C-320.7068438 243.96070321 -319.12009065 211.34853582 -312 181 C-311.82098145 180.22237305 -311.64196289 179.44474609 -311.45751953 178.64355469 C-303.44746825 144.41684137 -287.87645676 112.51554341 -266 85 C-265.28457031 84.0925 -264.56914062 83.185 -263.83203125 82.25 C-223.51988302 32.02034982 -164.94957922 -0.83885984 -100.91796875 -8.828125 C-67.11668589 -12.42109451 -32.47855479 -10.25261222 0 0 Z " fill="#23E763" transform="translate(327,19)"/>
<path d="M0 0 C1.45764267 -0.01226624 1.45764267 -0.01226624 2.94473267 -0.02478027 C6.15512499 -0.04954726 9.36547297 -0.06613811 12.57592773 -0.08056641 C13.68056807 -0.08589008 14.7852084 -0.09121376 15.92332268 -0.09669876 C21.78302184 -0.12340693 27.64269999 -0.14277969 33.50244141 -0.15722656 C38.3138357 -0.17049625 43.12479889 -0.19822311 47.93603516 -0.23925781 C53.7785793 -0.289072 59.62073646 -0.31340788 65.46348381 -0.32045364 C67.67066617 -0.32709188 69.87784247 -0.34211466 72.08490181 -0.36634445 C104.955023 -0.706291 134.9363292 8.98442646 158.82202148 32.38037109 C179.29453967 53.15555809 190.46437683 80.40553379 190.37548828 109.52734375 C190.06233501 140.58298288 178.63152235 167.68587871 156.66235352 189.76660156 C136.74539842 209.15261483 109.64521521 219.4194381 82.13842773 219.29052734 C80.99413803 219.2891124 79.84984833 219.28769745 78.67088318 219.28623962 C75.03373547 219.28066411 71.39665043 219.26811607 67.75952148 219.25537109 C65.28621508 219.25035293 62.81290772 219.24579058 60.33959961 219.24169922 C54.29205236 219.23070269 48.2445414 219.21398898 42.19702148 219.19287109 C42.20812454 219.78454071 42.2192276 220.37621033 42.23066711 220.98580933 C42.34189153 227.18325598 42.4169485 233.3804159 42.47167969 239.57861328 C42.49671466 241.8869988 42.53075302 244.19530593 42.57421875 246.50341797 C42.63535522 249.83499575 42.66334255 253.16551922 42.68530273 256.49755859 C42.71110916 257.51776093 42.73691559 258.53796326 42.76350403 259.58908081 C42.76673634 267.97903827 40.43420406 274.41615809 34.94702148 280.81787109 C33.58577148 281.99349609 33.58577148 281.99349609 32.19702148 283.19287109 C31.2940332 284.02818359 31.2940332 284.02818359 30.37280273 284.88037109 C25.36170431 289.47464987 20.0900887 293.66619455 14.72290039 297.82836914 C9.07822379 302.23006275 3.65945033 306.8719403 -1.74438477 311.56396484 C-10.72026864 319.2995853 -10.72026864 319.2995853 -16.80297852 319.19287109 C-22.35837266 315.86291331 -22.35837266 315.86291331 -23.34251022 312.16626549 C-23.54323995 309.63488267 -23.54508939 307.16789382 -23.48413086 304.62915039 C-23.4854451 303.19428032 -23.4854451 303.19428032 -23.48678589 301.73042297 C-23.48261261 298.57514189 -23.43597144 295.42199854 -23.38891602 292.26708984 C-23.37772299 290.07706361 -23.36918331 287.88702234 -23.3631897 285.69697571 C-23.34030007 279.93771762 -23.28137438 274.17936999 -23.21496582 268.42047119 C-23.15354694 262.54199541 -23.12617544 256.66337225 -23.09594727 250.78466797 C-23.03163234 239.25366937 -22.92925019 227.72334599 -22.80297852 216.19287109 C-23.42385188 216.05817728 -24.04472525 215.92348347 -24.68441296 215.78470802 C-25.90376522 215.51756524 -25.90376522 215.51756524 -27.14775085 215.24502563 C-27.95424922 215.06908182 -28.76074759 214.89313801 -29.5916853 214.71186256 C-31.90163335 214.16971676 -34.02126762 213.47359853 -36.19750977 212.52880859 C-37.27983887 212.05942871 -37.27983887 212.05942871 -38.3840332 211.58056641 C-39.12041016 211.24637695 -39.85678711 210.9121875 -40.61547852 210.56787109 C-41.39955078 210.21305664 -42.18362305 209.85824219 -42.99145508 209.49267578 C-69.31956332 197.26389122 -89.30779534 175.07126572 -99.52172852 148.03271484 C-109.44925872 119.25328035 -108.36087447 88.90913942 -95.02172852 61.48193359 C-81.71955148 35.00888424 -59.40493841 14.93950135 -31.29467773 5.3359375 C-20.8779995 2.08110769 -10.92689089 0.05123258 0 0 Z " fill="#FE4C72" transform="translate(213.802978515625,118.80712890625)"/>
<path d="M0 0 C1.01790619 0.00215515 2.03581238 0.0043103 3.08456421 0.00653076 C17.69363523 0.05620146 32.02575853 0.30709809 46.375 3.3125 C47.34985352 3.51117676 48.32470703 3.70985352 49.32910156 3.91455078 C97.7109774 14.03517194 141.69928269 35.9516877 177.375 70.3125 C178.3640332 71.26068604 178.3640332 71.26068604 179.37304688 72.22802734 C188.86130305 81.37247479 197.6012044 90.66984009 205.375 101.3125 C206.23306152 102.46355017 207.09113451 103.61459177 207.94921875 104.765625 C213.98736829 112.95680614 219.34595521 121.47054105 224.375 130.3125 C224.73948242 130.94430176 225.10396484 131.57610352 225.47949219 132.22705078 C247.08534998 169.97532572 256.85198095 212.74189997 256.6875 255.9375 C256.68534485 256.95540619 256.6831897 257.97331238 256.68096924 259.02206421 C256.63129854 273.63113523 256.38040191 287.96325853 253.375 302.3125 C253.07698486 303.77478027 253.07698486 303.77478027 252.77294922 305.26660156 C242.65232806 353.6484774 220.7358123 397.63678269 186.375 433.3125 C185.74287598 433.97185547 185.11075195 434.63121094 184.45947266 435.31054688 C175.31502521 444.79880305 166.01765991 453.5387044 155.375 461.3125 C154.22394983 462.17056152 153.07290823 463.02863451 151.921875 463.88671875 C143.73224019 469.92427396 135.22961724 475.30707302 126.375 480.3125 C125.66778809 480.7146875 124.96057617 481.116875 124.23193359 481.53125 C101.09654164 494.5566741 75.92537591 503.30551461 49.9375 508.625 C49.21860596 508.77235596 48.49971191 508.91971191 47.7590332 509.0715332 C33.08339502 511.86090125 18.55831162 512.66142619 3.64770508 512.62817383 C0.70811513 512.6250221 -2.2304558 512.64854926 -5.16992188 512.67382812 C-18.54306192 512.71848737 -31.43916711 511.51301542 -44.625 509.3125 C-46.33055054 509.03031616 -46.33055054 509.03031616 -48.07055664 508.74243164 C-91.33802759 500.97044532 -132.38793216 480.98345309 -165.625 452.3125 C-166.37007813 451.67828125 -167.11515625 451.0440625 -167.8828125 450.390625 C-181.38779833 438.57948485 -194.05918743 425.82889772 -204.625 411.3125 C-205.48149066 410.16255169 -206.33826433 409.01281411 -207.1953125 407.86328125 C-213.23534209 399.67315742 -218.61867614 391.16870382 -223.625 382.3125 C-224.0271875 381.60528809 -224.429375 380.89807617 -224.84375 380.16943359 C-237.8691741 357.03404164 -246.61801461 331.86287591 -251.9375 305.875 C-252.08485596 305.15610596 -252.23221191 304.43721191 -252.3840332 303.6965332 C-255.35789088 288.05024391 -255.99800362 272.57681954 -255.9375 256.6875 C-255.93534485 255.66959381 -255.9331897 254.65168762 -255.93096924 253.60293579 C-255.88129854 238.99386477 -255.63040191 224.66174147 -252.625 210.3125 C-252.42632324 209.33764648 -252.22764648 208.36279297 -252.02294922 207.35839844 C-241.90232806 158.9765226 -219.9858123 114.98821731 -185.625 79.3125 C-184.99287598 78.65314453 -184.36075195 77.99378906 -183.70947266 77.31445312 C-174.56502521 67.82619695 -165.26765991 59.0862956 -154.625 51.3125 C-153.47394983 50.45443848 -152.32290823 49.59636549 -151.171875 48.73828125 C-142.98224019 42.70072604 -134.47961724 37.31792698 -125.625 32.3125 C-124.91778809 31.9103125 -124.21057617 31.508125 -123.48193359 31.09375 C-100.34654164 18.0683259 -75.17537591 9.31948539 -49.1875 4 C-48.46860596 3.85264404 -47.74971191 3.70528809 -47.0090332 3.5534668 C-31.36274391 0.57960912 -15.88931954 -0.06050362 0 0 Z M-88.625 25.3125 C-89.28564453 25.57466309 -89.94628906 25.83682617 -90.62695312 26.10693359 C-107.67680545 32.9209011 -124.80945239 41.43302325 -139.625 52.3125 C-140.61242187 53.02921875 -141.59984375 53.7459375 -142.6171875 54.484375 C-185.45374199 86.09404626 -217.41106515 127.63023648 -234.625 178.3125 C-235.01816406 179.42625 -235.41132813 180.54 -235.81640625 181.6875 C-251.08662684 227.67781143 -251.44413505 281.19615335 -236.625 327.3125 C-236.37830566 328.10366211 -236.13161133 328.89482422 -235.87744141 329.70996094 C-226.8841952 358.2779929 -213.26307573 384.84359949 -194.625 408.3125 C-193.6040625 409.62154297 -193.6040625 409.62154297 -192.5625 410.95703125 C-162.79911887 448.32539396 -122.87024661 475.97669936 -77.625 491.3125 C-76.49964844 491.70566406 -75.37429687 492.09882813 -74.21484375 492.50390625 C-13.22349247 512.57202829 54.33987006 505.81065936 111.53271484 477.74755859 C143.13223667 461.79308434 172.73455815 438.47114723 194.375 410.3125 C194.79604004 409.76787109 195.21708008 409.22324219 195.65087891 408.66210938 C221.56931797 374.93691156 238.15674715 336.1977544 245.375 294.3125 C245.50777344 293.54534668 245.64054687 292.77819336 245.77734375 291.98779297 C255.83177354 229.86779768 238.19060321 163.69103886 201.9453125 112.87890625 C199.80830615 109.97657064 197.61633622 107.1347708 195.375 104.3125 C194.694375 103.43980469 194.01375 102.56710938 193.3125 101.66796875 C161.26325073 61.42966498 116.37402081 31.07230968 66.47631836 17.87548828 C64.93142392 17.46157791 63.39115298 17.03031206 61.85375977 16.58935547 C46.17102075 12.1373548 29.67654654 9.61176874 13.375 9.3125 C12.43994629 9.29203613 11.50489258 9.27157227 10.54150391 9.25048828 C-23.31538891 8.60847543 -57.05661293 12.41493868 -88.625 25.3125 Z " fill="#000200" transform="translate(255.625,-0.3125)"/>
<path d="M0 0 C3.22362505 1.61181253 4.03202793 5.03853327 5.5 8.1875 C18.70707077 35.36850371 40.8824232 53.26080556 69.07421875 63.56640625 C84.71505447 68.35689642 99.96489266 68.44475194 116.19140625 68.3984375 C118.71093327 68.40046322 121.23045971 68.40337879 123.74998474 68.40713501 C129.67444344 68.41209399 135.59874023 68.40171461 141.52317518 68.3856827 C146.88803874 68.37281369 152.25268815 68.38192076 157.61753803 68.3965925 C163.47803564 68.41196416 169.33841974 68.41018874 175.19892693 68.4014473 C177.6678058 68.39946176 180.13669257 68.4018459 182.60556221 68.40888596 C216.54694797 68.4844658 244.86090498 59.46235793 269.6875 35.75 C279.35991247 25.73968665 286.2170913 14.59984743 292 2 C292.66 2 293.32 2 294 2 C291.17846249 28.84915691 275.62783838 54.22487738 255.0625 71.3125 C234.83318303 86.6211723 212.37389651 95.21684579 186.94140625 95.09765625 C185.22497169 95.09553383 185.22497169 95.09553383 183.47386169 95.09336853 C179.83671399 95.08779301 176.19962895 95.07524498 172.5625 95.0625 C170.0891936 95.05748184 167.61588623 95.05291948 165.14257812 95.04882812 C159.09503088 95.0378316 153.04751992 95.02111788 147 95 C147.01110306 95.59166962 147.02220612 96.18333923 147.03364563 96.79293823 C147.14487004 102.99038488 147.21992702 109.18754481 147.2746582 115.38574219 C147.29969317 117.69412771 147.33373154 120.00243483 147.37719727 122.31054688 C147.43833373 125.64212465 147.46632107 128.97264813 147.48828125 132.3046875 C147.51408768 133.32488983 147.5398941 134.34509216 147.56648254 135.39620972 C147.56971485 143.78616717 145.23718257 150.223287 139.75 156.625 C138.38875 157.800625 138.38875 157.800625 137 159 C136.39800781 159.556875 135.79601562 160.11375 135.17578125 160.6875 C130.16468283 165.28177878 124.89306722 169.47332346 119.52587891 173.63549805 C113.8812023 178.03719165 108.46242884 182.67906921 103.05859375 187.37109375 C94.08270988 195.10671421 94.08270988 195.10671421 88 195 C82.44460586 191.67004221 82.44460586 191.67004221 81.46046829 187.97339439 C81.25973857 185.44201158 81.25788913 182.97502273 81.31884766 180.4362793 C81.31753342 179.00140923 81.31753342 179.00140923 81.31619263 177.53755188 C81.3203659 174.3822708 81.36700708 171.22912744 81.4140625 168.07421875 C81.42525552 165.88419252 81.43379521 163.69415125 81.43978882 161.50410461 C81.46267844 155.74484652 81.52160413 149.98649889 81.5880127 144.2276001 C81.64943157 138.34912431 81.67680307 132.47050115 81.70703125 126.59179688 C81.77134617 115.06079828 81.87372832 103.5304749 82 92 C81.06868995 91.79795928 81.06868995 91.79795928 80.11856556 91.59183693 C78.8992133 91.32469415 78.8992133 91.32469415 77.65522766 91.05215454 C76.8487293 90.87621073 76.04223093 90.70026691 75.21129322 90.51899147 C72.90134517 89.97684567 70.78171089 89.28072743 68.60546875 88.3359375 C67.88391602 88.02301758 67.16236328 87.71009766 66.41894531 87.38769531 C65.68256836 87.05350586 64.94619141 86.71931641 64.1875 86.375 C63.0113916 85.84277832 63.0113916 85.84277832 61.81152344 85.29980469 C35.48019658 73.06952515 15.52068121 50.88800359 5.28515625 23.859375 C2.66735431 16.27461252 0 8.04934857 0 0 Z " fill="#F81959" transform="translate(109,243)"/>
<path d="M0 0 C2.26382493 -0.0001555 4.52765013 -0.00165294 6.79147339 -0.00440979 C11.50286843 -0.00578333 16.21395519 0.00658947 20.92529297 0.02954102 C26.91723145 0.05795476 32.90866028 0.05516494 38.90063667 0.0424509 C43.56452674 0.03544597 48.22830217 0.04333707 52.89217758 0.05570793 C55.0998274 0.06017348 57.30748975 0.06060293 59.51514053 0.05664253 C95.07193056 0.02268936 124.82755566 9.82157495 150.9921875 34.49609375 C151.66894531 35.10839844 152.34570312 35.72070312 153.04296875 36.3515625 C163.81485345 46.4758389 170.99406241 59.14531619 176.9921875 72.49609375 C177.47558594 73.5634375 177.95898438 74.63078125 178.45703125 75.73046875 C189.97337756 103.31369335 189.23739924 135.73624542 177.95800781 163.26318359 C164.2647146 194.92113599 140.97972003 217.61332679 108.9921875 230.49609375 C91.90207558 236.86486101 75.14959299 237.79209348 57.1171875 237.62109375 C55.2539111 237.61103602 53.3906294 237.60191514 51.52734375 237.59375 C47.01549121 237.57197589 42.50389986 237.53760278 37.9921875 237.49609375 C38.01313477 238.65020752 38.03408203 239.80432129 38.05566406 240.9934082 C38.12869777 245.32270639 38.17421499 249.65195144 38.21191406 253.98168945 C38.23188645 255.84669182 38.25907418 257.71163273 38.29394531 259.57641602 C38.53467724 272.79189106 38.36101374 284.35303864 29.47265625 295.00390625 C24.15445854 300.3472293 18.18505067 304.95576904 12.29589844 309.64794922 C9.29840758 312.05267641 6.34371067 314.50682037 3.38867188 316.96337891 C-20.75150831 337.0124685 -20.75150831 337.0124685 -31.14453125 336.90234375 C-35.79486883 336.24254142 -39.03010121 334.08479768 -42.0078125 330.49609375 C-44.9101821 324.90634592 -45.42900368 320.4977827 -45.34838867 314.25610352 C-45.34904579 312.9085775 -45.34904579 312.9085775 -45.34971619 311.53382874 C-45.34763765 308.58482609 -45.32435082 305.63640249 -45.30078125 302.6875 C-45.29518197 300.63484508 -45.29091344 298.58218613 -45.28791809 296.52952576 C-45.27649549 291.14214904 -45.24705049 285.75501718 -45.21380615 280.36773682 C-45.18304953 274.86433219 -45.16940081 269.36088778 -45.15429688 263.85742188 C-45.12217837 253.07020526 -45.07101327 242.28316991 -45.0078125 231.49609375 C-45.94246338 231.34914063 -46.87711426 231.2021875 -47.84008789 231.05078125 C-64.2219611 228.1822174 -79.05311355 216.42929639 -91.0078125 205.49609375 C-91.81863281 204.76777344 -92.62945312 204.03945313 -93.46484375 203.2890625 C-113.84983786 184.04648487 -126.96359031 154.39640539 -128.0078125 126.49609375 C-128.65036558 103.93586615 -125.21820269 84.7589815 -115.0078125 64.49609375 C-114.56953125 63.58601563 -114.13125 62.6759375 -113.6796875 61.73828125 C-101.55692455 37.84111061 -80.14942151 20.22710547 -56.0078125 9.49609375 C-54.94175781 9.01398438 -53.87570313 8.531875 -52.77734375 8.03515625 C-35.64767065 0.87065419 -18.33404559 -0.10422645 0 0 Z M-56.0078125 19.49609375 C-57.04808594 19.99753906 -58.08835938 20.49898437 -59.16015625 21.015625 C-85.82760568 34.55545961 -104.11492059 57.25237653 -114.3203125 85.07421875 C-123.37070239 113.15704619 -120.39171028 144.22772685 -107.0546875 170.44921875 C-103.13869136 177.75262416 -98.41352212 184.23572649 -93.0078125 190.49609375 C-92.41742188 191.23085938 -91.82703125 191.965625 -91.21875 192.72265625 C-77.57560212 209.15248965 -58.20344658 219.49389481 -38.0078125 225.49609375 C-37.3478125 225.49609375 -36.6878125 225.49609375 -36.0078125 225.49609375 C-36.02113617 226.71274216 -36.03445984 227.92939056 -36.04818726 229.1829071 C-36.16978375 240.64510644 -36.25974457 252.10717504 -36.31868553 263.56987286 C-36.35000658 269.46311498 -36.39249493 275.3558367 -36.46044922 281.2487793 C-36.52561205 286.93519521 -36.56151271 292.62111042 -36.57707596 298.30787086 C-36.58816767 300.47807512 -36.60982745 302.64825178 -36.64219284 304.81824303 C-36.68571427 307.85689003 -36.69174827 310.89346483 -36.68896484 313.93237305 C-36.7105365 314.83076904 -36.73210815 315.72916504 -36.7543335 316.65478516 C-36.74651733 321.22068819 -36.74651733 321.22068819 -34.74808121 325.19095802 C-31.96112698 327.67062596 -30.29080431 328.48397009 -26.54296875 328.64453125 C-22.18759518 327.22963641 -19.73679714 325.21378954 -16.4453125 322.12109375 C-15.21716281 321.01694628 -13.9866295 319.91544523 -12.75390625 318.81640625 C-12.13241699 318.25856445 -11.51092773 317.70072266 -10.87060547 317.12597656 C-8.01159675 314.62443761 -5.01843634 312.31091389 -2.0078125 309.99609375 C2.94919204 306.15371509 7.79012105 302.19996598 12.5546875 298.12109375 C13.12638672 297.63318359 13.69808594 297.14527344 14.28710938 296.64257812 C15.87079696 295.27681196 17.43220835 293.88880361 18.9921875 292.49609375 C19.84683594 291.76132812 20.70148438 291.0265625 21.58203125 290.26953125 C28.09638693 282.77327107 29.72657751 275.53016892 29.48046875 265.80078125 C29.47339401 264.72732452 29.46631927 263.6538678 29.45903015 262.54788208 C29.43127795 259.15487834 29.36857404 255.76358974 29.3046875 252.37109375 C29.27957993 250.05601359 29.2567711 247.7409073 29.23632812 245.42578125 C29.18151463 239.78197737 29.0980832 234.13915813 28.9921875 228.49609375 C29.61033829 228.50275558 30.22848907 228.50941742 30.8653717 228.51628113 C37.37186413 228.58329609 43.87825657 228.62816511 50.38500977 228.66088867 C52.80464671 228.67585948 55.22425708 228.69624334 57.64379883 228.72241211 C77.01991381 228.94593707 77.01991381 228.94593707 95.9921875 225.49609375 C96.75023682 225.30249268 97.50828613 225.1088916 98.28930664 224.90942383 C125.67742826 217.51522253 148.66917583 198.1028343 163.04296875 174.04296875 C171.12879895 159.66995188 176.51432823 144.07413455 176.9921875 127.49609375 C177.02860352 126.72942383 177.06501953 125.96275391 177.10253906 125.17285156 C178.53475524 93.43542241 167.60871952 65.91679393 146.27734375 42.4921875 C128.89498138 23.93934557 102.99580539 11.29344922 77.500494 9.30140877 C74.91039666 9.21840502 72.32652732 9.19162355 69.73510742 9.18969727 C68.76276154 9.18137375 67.79041565 9.17305023 66.78860474 9.16447449 C63.59991339 9.14054535 60.41142766 9.13162017 57.22265625 9.125 C54.97797085 9.11601572 52.733286 9.1068936 50.48860168 9.09764099 C45.78738967 9.08119109 41.08624848 9.07345905 36.38500977 9.07055664 C30.41885457 9.06519903 24.45338483 9.02760962 18.48742199 8.98181248 C13.8482483 8.95176493 9.20923352 8.94482701 4.56997108 8.94383049 C2.37396442 8.93967737 0.17795503 8.92744598 -2.01795387 8.90631294 C-20.88097134 8.73932822 -38.90665678 11.00633081 -56.0078125 19.49609375 Z " fill="#030302" transform="translate(227.0078125,109.50390625)"/>
<path d="M0 0 C5.54046151 3.33170131 9.37690781 8.2641655 11.33203125 14.40234375 C12.24698446 21.83754244 11.96693479 28.16945798 7.81640625 34.53515625 C3.40434047 40.08507058 -2.09816525 43.84137985 -9.27734375 44.72265625 C-15.59885138 44.98459717 -20.55838299 44.27226208 -25.66796875 40.40234375 C-30.73222491 35.6083147 -34.23450023 31.22142956 -35.0390625 24.1328125 C-35.18161641 16.52714226 -34.96114378 11.12619706 -29.66796875 5.40234375 C-20.96790113 -3.46099592 -11.21877712 -4.96452972 0 0 Z " fill="#E1E7D0" transform="translate(267.66796875,207.59765625)"/>
<path d="M0 0 C4.30757797 2.42343927 6.86896719 4.78270886 9.625 8.875 C10.223125 9.720625 10.82125 10.56625 11.4375 11.4375 C13.5695738 17.60929257 13.7859984 24.252255 11.78125 30.5078125 C8.18201988 37.68195362 2.1869606 42.34671968 -5.375 44.875 C-12.4297036 45.78188267 -18.6123126 45.23956704 -24.375 40.875 C-29.43925616 36.08097095 -32.94153148 31.69408581 -33.74609375 24.60546875 C-33.88889609 16.98654403 -33.68296104 11.59535902 -28.375 5.875 C-20.32897066 -2.29932594 -10.79283955 -5.0172991 0 0 Z " fill="#E1E7D0" transform="translate(332.375,207.125)"/>
<path d="M0 0 C5.77220163 3.19467763 10.31167282 7.7318475 12.75 13.9375 C13.58069826 21.78083703 13.8292789 29.52864515 8.75 35.9375 C3.56115648 41.5501847 -2.31340207 44.97739731 -10.0625 45.4375 C-16.47975917 45.22228704 -22.09251738 42.75506225 -26.8828125 38.48046875 C-28.1875 37 -28.1875 37 -30.25 33.9375 C-30.848125 33.091875 -31.44625 32.24625 -32.0625 31.375 C-34.34177982 24.77708472 -34.57848533 16.96733356 -31.6875 10.5 C-24.93438482 -0.77104434 -12.04692746 -5.48905116 0 0 Z " fill="#E1E7D0" transform="translate(200.25,207.0625)"/>
<path d="M0 0 C8.21813457 4.83679118 13.46309289 11.79366739 16 21 C17.24754913 31.84711141 15.28229432 41.4559264 8.8125 50.375 C0.47972593 58.15225579 -8.43430291 61.51823995 -19.75 61.3125 C-24.4794467 60.85774551 -27.97186705 59.45823322 -32 57 C-32.69867188 56.57589844 -33.39734375 56.15179688 -34.1171875 55.71484375 C-41.22566788 50.89985421 -45.7581699 44.27439108 -48 36 C-49.07898117 24.70833664 -47.98820791 15.5986118 -40.75 6.6875 C-29.84121227 -4.87534781 -14.0797299 -7.75230411 0 0 Z M-35.5546875 15 C-40.07268489 21.25193152 -39.65902036 27.47195972 -39 35 C-37.32191596 41.65923223 -32.53486992 46.18640247 -27 50 C-20.960627 52.90317127 -14.60973378 53.18962938 -8.23828125 51.08984375 C-2.82624143 48.57393286 0.67115451 45.94283118 4 41 C4.598125 40.154375 5.19625 39.30875 5.8125 38.4375 C7.9445738 32.26570743 8.1609984 25.622745 6.15625 19.3671875 C2.55701988 12.19304638 -3.4380394 7.52828032 -11 5 C-21.99473617 3.58662584 -28.56701787 6.67979802 -35.5546875 15 Z " fill="#070404" transform="translate(338,200)"/>
<path d="M0 0 C6.26232657 4.95824121 10.46818506 11.75001179 11.86328125 19.61328125 C12.65623359 31.46508677 11.50248906 39.25881228 3.953125 48.5 C-2.92504974 55.45531315 -11.37156239 58.59877998 -21.01171875 58.98828125 C-30.08147065 58.80733857 -37.61675128 54.84499753 -44.13671875 48.61328125 C-51.39109492 39.50911959 -53.21216007 31.1924975 -52.41796875 19.73876953 C-51.34266035 11.6123503 -46.54027632 4.9674086 -40.21875 0.01171875 C-27.19202517 -8.73793883 -13.2508264 -8.59971366 0 0 Z M-39.9453125 12.8671875 C-44.18523951 19.08111332 -43.78046342 25.25973641 -43.13671875 32.61328125 C-41.45863471 39.27251348 -36.67158867 43.79968372 -31.13671875 47.61328125 C-25.09734575 50.51645252 -18.74645253 50.80291063 -12.375 48.703125 C-6.96296018 46.18721411 -3.46556424 43.55611243 -0.13671875 38.61328125 C0.46140625 37.76765625 1.05953125 36.92203125 1.67578125 36.05078125 C3.95506107 29.45286597 4.19176658 21.64311481 1.30078125 15.17578125 C-2.23507036 9.29510174 -7.44551296 5.18155376 -13.97265625 3.08984375 C-24.95096039 0.67223887 -32.96948919 4.26168467 -39.9453125 12.8671875 Z " fill="#060304" transform="translate(276.13671875,202.38671875)"/>
<path d="M0 0 C7.0569586 4.80730197 11.58111186 11.49341058 13.80859375 19.71484375 C14.93286032 31.48042411 13.62911502 40.40984158 6.05859375 49.58984375 C2.3696346 53.47765014 -1.21101364 55.81705204 -6.19140625 57.71484375 C-7.11953125 58.12734375 -8.04765625 58.53984375 -9.00390625 58.96484375 C-18.52009875 61.20394787 -27.06016463 59.67517545 -35.44140625 54.83984375 C-42.73575596 49.20330079 -47.7185002 42.63928692 -50.19140625 33.71484375 C-51.04653974 25.23311274 -50.65947443 18.0636401 -46.19140625 10.71484375 C-45.84078125 10.0909375 -45.49015625 9.46703125 -45.12890625 8.82421875 C-40.74376977 1.82018131 -33.40086614 -2.53823485 -25.5703125 -4.8125 C-15.99673362 -6.71463965 -8.32197687 -4.88044633 0 0 Z M-38.03515625 13.87109375 C-41.96232013 20.13332805 -42.00218938 26.52021025 -41.19140625 33.71484375 C-38.62107064 41.78450206 -32.88085673 45.99989874 -25.81640625 50.08984375 C-18.27043672 51.88650316 -12.23898406 51.03763458 -5.45703125 47.2734375 C-0.38388024 43.78345948 2.92006797 39.58367049 4.80859375 33.71484375 C5.6481066 26.31829371 5.94584501 19.44092125 1.29296875 13.32421875 C-4.08844272 7.48963578 -9.87948369 3.68527197 -18.00390625 3.21484375 C-26.33399218 3.50646015 -32.86624722 7.50011286 -38.03515625 13.87109375 Z " fill="#060304" transform="translate(208.19140625,201.28515625)"/>
<path d="M0 0 C2.64 0.66 5.28 1.32 8 2 C8 31.7 8 61.4 8 92 C7.67 92 7.34 92 7 92 C7.00119339 90.42598671 7.00119339 90.42598671 7.00241089 88.82017517 C7.00601738 78.91815986 6.97816478 69.01666294 6.9197216 59.1148138 C6.89068218 54.02441655 6.872625 48.93447932 6.87988281 43.84399414 C6.88648299 38.92883436 6.86395179 34.01458308 6.82144547 29.09961128 C6.81032651 27.22702838 6.80960318 25.3543532 6.81957626 23.48176384 C6.83178078 20.85264635 6.80661392 18.22628843 6.77294922 15.59741211 C6.78517014 14.82776627 6.79739105 14.05812042 6.8099823 13.26515198 C6.67069302 7.20587898 4.31580909 4.1266709 0 0 Z " fill="#19A246" transform="translate(174,339)"/>
<path d="M0 0 C2.64 0.66 5.28 1.32 8 2 C8 3.98 8 5.96 8 8 C6.85073734 7.04578192 5.70569459 6.08647955 4.5625 5.125 C3.92441406 4.59132813 3.28632813 4.05765625 2.62890625 3.5078125 C1 2 1 2 0 0 Z " fill="#02A52A" transform="translate(174,339)"/>
</svg>
