<svg width="400" height="110" viewBox="0 0 438 126" fill="none" xmlns="http://www.w3.org/2000/svg">
<path d="M390.027 109.974C387.952 109.939 386.097 111.357 383.954 111.135C382.947 112.234 381.598 111.696 380.425 112.04C379.975 112.586 379.232 112.13 378.787 112.739C378.028 112.796 377.274 112.917 376.516 112.974C376.111 113.388 375.559 113.302 375.071 113.339C374.692 113.367 374.248 113.273 374.011 113.738C373.306 113.791 372.606 113.908 371.902 113.961C371.546 114.308 371.108 114.277 370.728 114.305C370.403 114.33 370.019 114.295 369.722 114.701C367.047 114.647 364.541 116.114 361.861 115.996C361.353 116.482 360.737 116.273 360.146 116.381C359.771 116.473 359.269 116.319 358.977 116.789C357.893 116.87 356.868 117.012 355.784 117.093C355.172 117.651 354.389 117.39 353.689 117.507C353.315 117.599 352.812 117.445 352.521 117.915C351.328 118.004 350.14 118.158 348.948 118.248C348.07 118.889 347.011 118.585 346.04 118.722C345.611 118.819 345.109 118.665 344.763 119.138C343.191 119.257 341.678 119.435 340.106 119.553C339.805 119.895 339.421 119.861 338.987 119.893C337.903 119.975 336.819 120.057 335.735 120.138C335.41 120.163 335.084 120.187 334.837 120.525C332.615 120.693 330.397 120.924 328.175 121.091C327.819 121.438 327.381 121.407 327.002 121.436C324.454 121.627 321.906 121.819 319.359 122.011C318.979 122.04 318.536 121.946 318.298 122.411C308.65 123.138 299.002 123.865 289.407 124.588C289.103 124.163 288.679 124.323 288.299 124.352C285.697 124.548 283.096 124.744 280.44 124.944C280.006 124.977 279.577 125.073 279.228 124.78C276.897 124.955 274.562 125.067 272.231 125.243C271.936 124.945 271.556 124.974 271.177 125.003C269.876 125.101 268.575 125.199 267.328 125.293C266.949 125.321 266.569 125.35 266.171 125.124C264.274 125.267 262.318 125.351 260.42 125.493C260.125 125.196 259.8 125.221 259.475 125.245C258.337 125.331 257.198 125.417 256.06 125.502C255.681 125.531 255.301 125.56 254.903 125.334C253.06 125.473 251.212 125.548 249.315 125.691C249.02 125.394 248.694 125.418 248.369 125.443C247.339 125.52 246.309 125.598 245.334 125.671C244.954 125.7 244.575 125.729 244.176 125.503C242.388 125.638 240.594 125.709 238.805 125.844C238.51 125.546 238.185 125.571 237.86 125.595C236.83 125.673 235.8 125.75 234.824 125.824C234.445 125.853 234.066 125.881 233.667 125.656C232.149 125.77 230.681 125.817 229.163 125.931C228.868 125.634 228.543 125.658 228.218 125.683C227.296 125.752 226.429 125.817 225.507 125.887C225.182 125.911 224.857 125.936 224.567 125.702C223.158 125.808 221.689 125.855 220.28 125.961C219.867 125.545 219.393 125.772 218.955 125.741C218.078 125.679 217.24 126.126 216.388 125.679C215.087 125.777 213.782 125.811 212.426 125.914C212.014 125.497 211.54 125.725 211.102 125.694C210.338 125.687 209.598 125.999 208.914 125.603C207.722 125.693 206.524 125.719 205.332 125.809C204.978 125.452 204.554 125.612 204.116 125.581C203.406 125.57 202.666 125.882 201.982 125.486C200.79 125.576 199.593 125.602 198.4 125.692C197.987 125.276 197.514 125.503 197.075 125.472C196.312 125.466 195.572 125.777 194.888 125.381C193.804 125.463 192.715 125.481 191.685 125.559C191.272 125.142 190.799 125.37 190.36 125.339C189.705 125.324 189.019 125.632 188.335 125.236C187.251 125.317 186.162 125.335 185.132 125.413C184.72 124.997 184.246 125.224 183.808 125.193C183.152 125.179 182.467 125.486 181.783 125.09C180.699 125.172 179.61 125.19 178.58 125.268C178.221 124.847 177.802 125.07 177.364 125.04C176.817 125.017 176.289 125.248 175.772 124.904C174.743 124.981 173.762 124.991 172.732 125.069C172.373 124.648 171.954 124.872 171.516 124.841C170.915 124.822 170.333 125.058 169.762 124.717C168.678 124.799 167.643 124.813 166.559 124.895C166.205 124.538 165.781 124.698 165.343 124.667C164.796 124.644 164.268 124.876 163.752 124.531C162.884 124.596 161.958 124.602 161.091 124.668C160.732 124.247 160.313 124.471 159.874 124.44C159.328 124.417 158.8 124.648 158.283 124.304C157.416 124.369 156.49 124.375 155.622 124.44C155.268 124.084 154.899 124.239 154.514 124.204C154.135 124.233 153.756 124.261 153.357 124.036C152.49 124.101 151.563 124.107 150.696 124.172C150.337 123.752 149.918 123.975 149.48 123.944C148.933 123.922 148.405 124.153 147.889 123.809C147.184 123.862 146.479 123.915 145.77 123.904C145.411 123.484 144.992 123.707 144.553 123.676C144.007 123.654 143.479 123.885 142.962 123.541C142.258 123.594 141.548 123.583 140.843 123.636C140.489 123.279 140.12 123.435 139.735 123.4C139.356 123.429 138.981 123.521 138.578 123.232C137.873 123.285 137.169 123.338 136.459 123.327C136.105 122.97 135.735 123.126 135.351 123.091C134.972 123.12 134.597 123.212 134.194 122.923C133.489 122.976 132.78 122.965 132.075 123.018C131.721 122.662 131.351 122.817 130.967 122.782C130.587 122.811 130.213 122.903 129.809 122.614C129.105 122.667 128.395 122.656 127.691 122.71C127.337 122.353 126.967 122.508 126.583 122.473C126.203 122.502 125.829 122.594 125.425 122.305C124.829 122.35 124.282 122.327 123.686 122.372C122.276 122.478 120.845 121.563 119.41 122.055C119.056 121.698 118.686 121.854 118.302 121.819C117.922 121.847 117.548 121.94 117.144 121.65C116.386 121.708 115.429 122.035 114.804 121.699C113.721 121.077 112.715 121.473 111.671 121.36C111.317 121.003 110.947 121.158 110.563 121.123C110.184 121.152 109.809 121.244 109.406 120.955C108.809 121 108.119 121.244 107.612 121.026C106.318 120.484 104.892 121.103 103.711 120.617C102.584 120.127 101.578 120.522 100.529 120.345C99.3665 120.113 98.1899 119.691 97.0118 119.971C96.4266 119.44 95.7061 120.006 95.1257 119.538C93.4055 119.859 91.7426 118.77 90.032 119.218C89.0386 118.334 87.9036 119.187 86.9438 118.748C85.7082 118.266 84.4902 118.741 83.422 118.31C82.5212 117.931 81.5743 118.385 80.8855 117.926C79.9065 117.233 78.7173 118.089 77.8228 117.07C77.7638 117.011 77.7096 117.015 77.6602 117.082C76.329 117.502 75.0249 116.833 73.7494 116.546C72.7498 116.302 71.5764 116.646 70.6915 115.754L70.6325 115.694C69.6218 116.026 68.6922 115.265 67.7516 115.08C66.7568 114.899 65.569 115.053 64.6347 114.228C64.5757 114.169 64.5215 114.173 64.4673 114.177C63.3194 114.136 62.1476 113.776 61.1192 113.151C61.0602 113.091 60.9518 113.099 60.8434 113.108C59.5919 113.138 58.4503 112.457 57.2881 112.225C56.4559 112.032 55.5646 111.779 54.7818 111.519C53.9942 111.194 53.0377 111.522 52.3744 110.677C52.3154 110.618 52.148 110.566 52.0396 110.575C51.1325 110.835 50.3209 110.193 49.5381 109.932C48.4205 109.569 47.2534 109.273 46.1661 108.588C45.3099 108.077 44.2959 107.642 43.3951 107.263C42.8291 106.986 42.2089 106.713 41.6875 106.305C40.7134 105.675 39.6802 104.986 38.706 104.356C37.4417 103.492 36.0689 102.637 34.9927 101.375C33.9802 100.237 32.7605 99.2422 31.8468 97.9686C31.2967 97.1791 30.6828 96.2664 30.1279 95.4133C29.5778 94.6237 29.8168 93.4551 29.0101 92.8766C28.8921 92.7576 28.8633 92.3763 28.8394 92.0584C28.6813 89.9608 28.4149 87.8714 28.4242 85.825C28.456 84.7998 28.6456 83.6988 29.0616 82.7086C29.2991 82.2432 29.3596 81.5994 29.5923 81.0705C29.9143 80.2791 30.182 79.4918 30.504 78.7005C31.3806 76.5888 32.675 74.9571 33.9598 73.1982C34.7998 72.0482 35.5075 70.5885 36.5884 69.74C37.3089 69.1743 37.9609 68.422 38.6815 67.8563C39.5056 67.2189 40.443 66.6368 41.0216 65.6343C41.3627 65.0972 41.8952 64.9293 42.2603 64.71C43.1434 64.132 43.9134 63.4987 44.8508 62.9167C45.3194 62.6256 45.9603 62.4495 46.2967 61.8488C46.4449 61.6459 46.6075 61.6336 46.7653 61.5578C47.6278 61.4289 48.2256 60.6807 48.9605 60.3057C49.5918 60.0024 50.027 59.2665 50.7954 59.3364C51.4507 59.351 51.8906 58.6786 52.4677 58.3794C52.8376 58.2236 53.3206 58.1233 53.5725 57.8486C54.2293 57.1599 55.1061 57.2217 55.8267 56.656C56.34 56.2338 57.0207 55.8628 57.7062 55.5555C58.4953 55.1764 59.4216 55.1705 60.0146 54.3588C60.064 54.2911 60.2266 54.2789 60.3302 54.2071C61.341 53.8753 62.3517 53.5434 63.2205 52.7748C63.2699 52.7071 63.3783 52.6989 63.4867 52.6908C64.5948 52.9269 65.631 52.2096 66.2973 51.648C67.1709 50.9429 68.4209 51.6158 69.0345 50.355C70.0294 50.5357 70.726 49.6522 71.6331 49.3921C72.698 49.0561 73.9447 48.9622 74.8582 48.0624C74.8582 48.0624 74.9076 47.9947 74.9666 48.0542C76.183 48.2822 77.0869 47.2552 78.2156 47.0423C79.4527 46.8212 80.7345 46.4689 81.7611 45.6245C81.8105 45.5568 81.8647 45.5527 81.9189 45.5486C83.4064 45.7562 84.7583 44.8872 86.0304 44.4078C87.2484 43.9325 88.6913 44.2713 89.7481 43.1049C89.7975 43.0372 89.8518 43.0332 89.906 43.0291C91.6549 43.0891 93.1358 41.7629 94.8943 41.95C95.1956 41.6077 95.693 41.6981 95.9895 41.2922C96.5858 41.2473 97.1916 41.3295 97.6651 41.102C99.0759 40.2925 100.686 40.6826 101.998 40.0084C103.049 39.4818 104.034 39.5354 105.05 39.2671C105.405 38.9207 105.843 38.9516 106.223 38.923C106.548 38.8985 106.932 38.9334 107.175 38.5316C107.879 38.4785 108.579 38.3619 109.284 38.3088C109.585 37.9665 110.024 37.9973 110.403 37.9688C110.728 37.9443 111.053 37.9197 111.301 37.5815C112.114 37.5202 112.976 37.3913 113.789 37.3301C114.194 36.916 114.746 37.0023 115.233 36.9655C115.613 36.9369 116.051 36.9678 116.294 36.566C117.432 36.4802 118.565 36.3309 119.704 36.2451C120.37 35.6835 121.153 35.9442 121.853 35.8275C122.282 35.7313 122.784 35.8852 123.13 35.4117C124.702 35.2932 126.215 35.1153 127.787 34.9969C128.088 34.6545 128.472 34.6895 128.906 34.6568C130.423 34.5425 131.941 34.4281 133.513 34.3097C133.893 34.2811 134.223 34.3201 134.519 33.9142C140.102 33.4936 145.685 33.0729 151.268 32.6522C151.563 32.9496 151.943 32.921 152.322 32.8924C153.786 32.7821 155.249 32.6719 156.713 32.5616C157.092 32.533 157.472 32.5044 157.87 32.7301C158.521 32.6811 159.176 32.6956 159.876 32.579C160.901 32.4378 161.717 33.1434 162.608 33.3959C163.721 33.6956 163.616 34.4706 163.737 35.3564C163.844 36.0515 163.39 36.5332 163.02 36.689C162.231 37.068 161.579 37.8203 160.638 37.6355C160.337 37.9778 159.958 38.0064 159.524 38.0391C158.494 38.1167 157.464 38.1943 156.489 38.2678C156.163 38.2923 155.838 38.3168 155.591 38.6551C152.556 38.8838 149.471 39.1802 146.435 39.4089C146.08 39.7553 145.641 39.7244 145.262 39.753C142.66 39.9491 140.058 40.1451 137.402 40.3452C137.023 40.3738 136.584 40.3429 136.342 40.7447C133.957 40.9244 131.577 41.1677 129.138 41.3515C128.836 41.6938 128.452 41.6589 128.018 41.6915C126.934 41.7732 125.85 41.8549 124.766 41.9366C124.441 41.9611 124.116 41.9856 123.869 42.3238C122.514 42.426 121.109 42.5957 119.754 42.6978C119.142 43.2553 118.359 42.9947 117.659 43.1114C117.23 43.2076 116.782 43.0496 116.49 43.519C115.515 43.5926 114.598 43.7256 113.622 43.7991C113.163 44.2172 112.612 44.1309 112.07 44.1718C111.695 44.2639 111.193 44.11 110.901 44.5794C110.034 44.6448 109.117 44.7778 108.25 44.8431C107.894 45.1896 107.456 45.1587 107.076 45.1873C106.751 45.2118 106.367 45.1768 106.125 45.5786C105.42 45.6317 104.72 45.7484 104.016 45.8014C103.561 46.2832 102.823 45.8913 102.378 46.5001C100.674 46.3089 99.1931 47.6351 97.4984 47.571C96.1337 47.546 94.8806 48.2797 93.6579 48.6914C92.7508 48.9515 91.6523 48.8425 90.9318 49.4082C89.8015 50.3244 88.2757 49.6084 87.3272 50.7666C87.2778 50.8342 87.2236 50.8383 87.1694 50.8424C85.7904 50.6267 84.5373 51.3603 83.4373 51.9546C82.441 52.4772 81.215 52.1221 80.4785 53.2004L80.4291 53.268C79.3258 53.0954 78.516 53.9236 77.5595 54.2513C76.391 54.659 75.2032 54.8124 74.1766 55.6569C74.073 55.7286 73.9694 55.8004 73.8562 55.745C72.7481 55.5088 71.9431 56.4005 70.9866 56.7283C69.7686 57.2036 68.4964 57.683 67.288 58.2855C66.1833 58.8162 65.1327 59.3428 64.0231 59.81C63.022 60.269 61.9666 60.732 61.0835 61.31C60.4123 61.808 59.5307 61.6827 58.8835 62.4986C58.5328 62.9085 57.6559 62.8468 57.1522 63.3961C56.4412 64.0889 55.4656 64.1625 54.6908 64.7322C54.1727 65.0909 53.4234 65.2752 52.8511 65.638C52.2836 66.0643 51.7017 66.2999 51.1932 66.7857C50.7835 67.1362 50.2702 67.5584 49.8907 67.587C48.6536 67.8081 47.7992 68.7674 46.8124 69.4171C46.1859 69.7839 45.6025 70.7228 44.917 71.0302C44.0194 71.4174 43.672 72.5943 42.7553 72.7273C42.3807 72.8194 42.4636 73.1967 42.2564 73.3402C41.2648 73.9263 40.5188 74.8775 39.65 75.6461C38.7764 76.3512 38.1532 77.4849 37.4119 78.4996C37.066 78.9731 36.6659 79.4508 36.438 80.0433C35.8243 81.3041 34.9891 82.5177 34.656 83.8852C34.154 85.9047 34.0411 88.0228 34.5785 90.0918C34.7301 90.6557 34.9007 91.4739 35.4811 91.9415C35.8845 92.2308 36.0504 92.9854 36.1875 93.3586C36.6675 94.6648 37.6863 95.1634 38.4086 96.0679C39.0671 96.8493 39.7846 97.6902 40.577 98.0779C41.4284 98.5252 42.0822 99.243 42.9877 99.6862C43.8933 100.129 44.8978 100.437 45.7141 101.143C46.1223 101.496 46.6149 101.522 47.0135 101.748C48.1455 102.302 49.2775 102.856 50.4095 103.41C51.0297 103.683 51.7391 103.693 52.3641 104.03C53.5057 104.711 54.856 104.545 55.9083 105.489C56.0263 105.608 56.1889 105.595 56.3516 105.583C57.2635 105.387 58.1244 105.961 58.853 106.226C59.5864 106.554 60.5334 106.099 61.0979 107.079C61.1026 107.143 61.2653 107.131 61.3737 107.123C62.4386 106.787 63.5164 107.345 64.3088 107.732C65.1012 108.12 66.0928 107.534 66.6078 108.582C66.6078 108.582 66.662 108.578 66.7162 108.574C67.8306 108.17 68.9227 108.919 69.9766 109.159C71.0256 109.336 72.2181 109.246 73.2019 110.003C73.2609 110.062 73.3151 110.058 73.3693 110.054C74.5378 109.646 75.6794 110.328 76.6838 110.635C77.7425 110.939 78.9652 110.527 79.9043 111.416C79.9633 111.475 80.0175 111.471 80.0717 111.467C81.5113 111.039 82.9781 111.695 84.3078 111.979C85.5832 112.266 86.9638 111.779 88.1787 112.71C88.2377 112.769 88.2919 112.765 88.3461 112.761C90.0073 112.38 91.6209 113.537 93.2231 113.097C93.5818 113.517 94.1589 113.218 94.5671 113.571C95.2717 113.518 95.9812 113.528 96.6859 113.475C97.0988 113.892 97.6217 113.596 98.0299 113.949C98.6803 113.9 99.4248 113.652 99.986 113.866C101.497 114.391 103.085 113.76 104.543 114.29C105.832 114.768 107.001 114.36 108.213 114.524C108.567 114.881 108.936 114.726 109.321 114.761C109.646 114.736 109.971 114.712 110.261 114.945C110.857 114.9 111.454 114.856 112.055 114.874C113.863 114.994 115.695 115.431 117.469 115.106C117.823 115.462 118.193 115.307 118.577 115.342C118.956 115.313 119.331 115.221 119.734 115.51C120.439 115.457 121.193 115.336 121.907 115.41C123.715 115.53 125.547 115.967 127.322 115.642C127.676 115.999 128.045 115.843 128.43 115.878C128.809 115.849 129.184 115.757 129.587 116.046C130.454 115.981 131.381 115.975 132.248 115.91C132.602 116.267 132.972 116.111 133.356 116.146C133.735 116.117 134.11 116.025 134.513 116.314C135.381 116.249 136.307 116.243 137.174 116.178C137.528 116.535 137.898 116.379 138.282 116.414C138.721 116.445 139.199 116.281 139.602 116.57C140.415 116.509 141.288 116.507 142.101 116.446C142.459 116.866 142.879 116.643 143.317 116.674C143.864 116.696 144.392 116.465 144.908 116.81C145.775 116.744 146.702 116.738 147.569 116.673C147.923 117.03 148.293 116.874 148.677 116.909C149.056 116.881 149.431 116.788 149.834 117.078C150.702 117.012 151.628 117.006 152.495 116.941C152.854 117.362 153.273 117.138 153.712 117.169C154.259 117.192 154.786 116.96 155.303 117.305C156.007 117.252 156.717 117.262 157.422 117.209C157.78 117.63 158.2 117.406 158.638 117.437C159.185 117.46 159.713 117.228 160.229 117.573C161.096 117.508 162.023 117.502 162.89 117.436C163.249 117.857 163.668 117.633 164.106 117.664C164.653 117.687 165.181 117.455 165.698 117.8C166.565 117.735 167.491 117.729 168.358 117.664C168.712 118.02 169.082 117.865 169.466 117.9C169.959 117.927 170.487 117.695 170.949 118.044C171.708 117.986 172.535 118.116 173.28 117.868C174.295 117.6 175.18 118.492 176.201 118.287C177.226 118.146 178.26 118.132 179.241 118.122C179.6 118.543 180.019 118.319 180.457 118.35C181.004 118.373 181.532 118.141 182.048 118.486C183.024 118.412 183.95 118.406 184.926 118.333C185.285 118.753 185.704 118.53 186.143 118.561C186.744 118.58 187.325 118.344 187.896 118.684C188.655 118.627 189.414 118.57 190.178 118.576C192.405 118.473 194.591 119.267 196.784 118.718C197.143 119.138 197.562 118.915 198.001 118.946C198.602 118.965 199.184 118.729 199.754 119.069C200.784 118.992 201.765 118.982 202.795 118.904C203.208 119.321 203.681 119.093 204.12 119.124C204.775 119.139 205.46 118.831 206.144 119.227C207.228 119.146 208.263 119.132 209.347 119.05C209.701 119.407 210.125 119.247 210.564 119.278C211.111 119.301 211.638 119.069 212.155 119.414C213.401 119.32 214.653 119.289 215.9 119.195C216.313 119.612 216.786 119.384 217.225 119.415C217.88 119.43 218.565 119.122 219.249 119.518C220.496 119.424 221.747 119.394 222.994 119.3C223.407 119.716 223.881 119.489 224.319 119.52C225.304 119.573 226.251 119.119 227.265 119.554C228.783 119.439 230.251 119.393 231.769 119.278C232.064 119.576 232.389 119.551 232.714 119.527C233.636 119.457 234.503 119.392 235.425 119.322C235.75 119.298 236.075 119.273 236.365 119.507C238.046 119.381 239.731 119.317 241.411 119.191C241.706 119.488 242.031 119.464 242.357 119.439C243.495 119.353 244.633 119.268 245.772 119.182C246.151 119.153 246.53 119.125 246.929 119.35C248.826 119.207 250.782 119.124 252.68 118.981C252.979 119.342 253.354 119.25 253.733 119.221C255.034 119.123 256.335 119.025 257.582 118.931C257.961 118.903 258.341 118.874 258.739 119.1C260.853 118.94 262.918 118.849 265.032 118.69C265.327 118.987 265.706 118.958 266.086 118.93C267.332 118.836 268.525 118.746 269.772 118.652C270.151 118.623 270.531 118.595 270.929 118.821C273.91 118.596 276.951 118.431 279.932 118.206C280.227 118.504 280.606 118.475 280.986 118.446C294.158 117.454 307.383 116.457 320.555 115.465C320.935 115.436 321.265 115.475 321.561 115.069C325.03 114.808 328.495 114.483 332.018 114.218C332.319 113.875 332.703 113.91 333.137 113.878C334.546 113.771 335.956 113.665 337.365 113.559C337.744 113.53 338.074 113.569 338.371 113.164C340.106 113.033 341.835 112.839 343.57 112.708C344.448 112.066 345.507 112.37 346.478 112.233C346.907 112.137 347.409 112.291 347.755 111.817C349.056 111.719 350.352 111.558 351.707 111.456C352.373 110.894 353.156 111.155 353.856 111.038C354.285 110.942 354.787 111.096 355.133 110.622C356.217 110.54 357.242 110.399 358.326 110.317C358.785 109.899 359.337 109.986 359.879 109.945C360.254 109.853 360.756 110.007 361.048 109.537C361.915 109.472 362.831 109.339 363.699 109.273C364.158 108.855 364.709 108.942 365.252 108.901C365.626 108.809 366.128 108.963 366.42 108.493C367.125 108.44 367.829 108.387 368.529 108.27C368.885 107.924 369.323 107.955 369.703 107.926C370.028 107.902 370.412 107.937 370.709 107.531C371.576 107.465 372.493 107.332 373.36 107.267C373.814 106.785 374.552 107.177 374.997 106.568C375.593 106.523 376.194 106.542 376.781 106.37C378.383 105.93 380 105.68 381.543 105.18C382.5 104.852 383.716 105.08 384.427 104.387C385.498 103.412 387.038 104.319 387.977 103.033C388.027 102.966 388.081 102.961 388.14 103.021C389.573 103.233 390.88 102.495 391.98 101.901C393.13 101.239 394.538 101.836 395.427 100.618C395.427 100.618 395.481 100.614 395.535 100.61C396.752 100.838 397.72 99.9339 398.78 99.5344C399.731 99.1431 400.938 99.2439 401.739 98.2887C401.788 98.221 401.892 98.1493 402.005 98.2047C403.113 98.4408 404.041 97.7316 404.87 97.1578C405.753 96.5798 406.984 96.9985 407.661 95.8607C407.71 95.7931 407.873 95.7808 407.981 95.7726C409.089 96.0088 409.894 95.1171 410.846 94.7258C412.064 94.2504 413.346 93.8982 414.495 93.2362C414.964 92.9452 415.605 92.7691 415.946 92.232C416.089 91.9654 416.306 91.9491 416.469 91.9369C417.277 91.812 417.939 91.1869 418.551 90.6293C418.906 90.2829 419.38 90.0555 419.799 89.8321C420.741 89.3136 421.251 88.1245 422.158 87.8644C423.115 87.5366 423.403 86.3003 424.374 86.1632C424.754 86.1347 424.666 85.6938 424.868 85.4868C426.903 83.5436 428.755 81.3584 430.248 78.7528C430.634 78.0845 430.671 77.1228 431.125 76.6411C431.975 75.6182 431.165 74.2729 431.734 73.1433C432.065 72.4791 432.118 71.0048 431.238 70.1762C431.12 70.0572 431.096 69.7394 431.076 69.4852C431.04 68.2734 430.268 67.4366 429.92 66.4399C429.568 65.3798 428.712 64.869 428.364 63.8723C428.026 63.0029 427.165 62.4285 426.516 61.7742C425.041 60.2872 423.611 58.669 421.997 57.5121C420.728 56.5849 419.795 55.057 418.235 54.5993C417.846 54.5008 417.571 53.7543 417.119 53.5328C416.095 52.9706 415.116 52.2773 414.196 51.6434C413.33 51.0055 412.321 50.6341 411.549 49.7973C411.191 49.3768 410.575 49.1675 410.019 49.0176C409.684 48.915 409.502 48.673 409.217 48.5027C408.469 47.9838 407.677 47.596 406.884 47.2082C406.259 46.8718 405.437 46.8059 405.004 46.1353C404.572 45.4647 403.858 45.3906 403.351 45.1731C402.396 44.7976 401.481 44.2273 400.521 43.7882C399.62 43.4086 398.661 42.9695 397.8 42.3952C397.283 42.0505 396.644 41.5234 395.89 41.6441C395.244 41.7567 394.708 41.1578 394.147 40.9444C393.532 40.7351 392.852 40.4027 392.223 40.0027C391.135 39.3175 389.938 39.3438 388.846 38.5951C388.329 38.2504 387.64 37.7909 386.936 37.844C386.29 37.9566 385.75 37.2942 385.08 37.0889C384.858 37.0417 384.563 36.7443 384.292 36.7647C383.543 36.949 382.948 36.2906 382.333 36.0813C381.383 35.7694 380.472 35.2626 379.487 35.209C378.94 35.1863 378.31 34.7863 378.129 34.5443C377.421 33.8305 376.533 34.3449 375.83 33.6947C375.417 33.2783 374.509 33.5385 373.875 33.0749C373.122 32.4923 372.137 32.4387 371.3 32.1822C370.571 31.9174 369.789 31.6568 368.956 31.4638C368.124 31.2708 367.193 31.2131 366.382 30.5711C366.268 30.5157 366.155 30.4603 366.047 30.4685C365.144 30.7921 364.377 30.0189 363.491 29.83C362.334 29.6615 361.206 29.1711 360.035 28.8119C358.971 28.4446 357.858 28.1449 356.746 27.8452C355.574 27.486 354.461 27.1863 353.289 26.8271C352.058 26.4085 350.788 26.1846 349.557 25.7659C348.833 25.5648 347.916 25.6978 347.208 24.984C346.736 24.5081 345.869 24.5735 345.322 24.5508C344.278 24.4377 343.229 24.261 342.378 23.8138C341.418 23.3747 340.397 23.5794 339.379 23.0809C338.754 22.7444 337.803 22.4325 336.986 22.4302C335.897 22.4483 334.887 22.0768 333.864 21.5147C333.805 21.4552 333.751 21.4593 333.696 21.4634C332.528 21.8711 331.436 21.1223 330.328 20.8862C329.333 20.7055 328.15 20.9225 327.216 20.0979C327.157 20.0384 327.102 20.0425 327.048 20.0466C325.88 20.4543 324.787 19.7055 323.679 19.4694C322.685 19.2887 321.502 19.5056 320.567 18.6811C320.508 18.6216 320.454 18.6257 320.4 18.6298C319.231 19.0374 317.937 18.4957 316.977 18.0567C315.737 17.5109 314.385 18.3798 313.264 17.2497C313.264 17.2497 313.21 17.2538 313.155 17.2579C311.874 17.6102 310.673 16.8696 309.461 16.7052C308.417 16.5921 307.175 16.7496 306.187 15.9291C306.128 15.8697 306.074 15.8737 306.019 15.8778C304.832 16.0312 303.674 15.8628 302.552 15.4359C301.203 14.8983 299.66 15.3981 298.341 14.5386C298.341 14.5386 298.287 14.5427 298.233 14.5468C297.094 14.6325 295.982 14.3328 294.883 14.2238C293.292 14.088 291.766 13.372 290.164 13.8123C289.343 13.0432 288.302 13.6969 287.564 13.3051C286.545 12.8065 285.49 13.2696 284.643 12.8859C283.565 12.3279 282.465 12.9221 281.56 12.479C280.378 11.9927 279.16 12.468 278.092 12.0371C277.024 11.6062 275.914 12.0733 275.013 11.6937C273.778 11.2115 272.56 11.6868 271.492 11.2559C270.591 10.8763 269.783 11.0011 268.906 10.9393C268.606 10.5784 268.231 10.6705 267.906 10.695C267.472 10.7277 267.044 10.824 266.694 10.5306C264.802 10.7372 262.986 9.78726 261.059 10.2521C259.898 9.31677 258.659 10.2411 257.537 9.8143C256.134 9.28076 254.654 9.90364 253.365 9.4255C252.075 8.94736 250.906 9.35503 249.695 9.19063C249.164 8.65531 248.497 9.21692 247.971 8.74516C247.104 8.81051 246.178 8.81638 245.31 8.88173C244.725 8.35049 244.005 8.91619 243.424 8.44851C242.611 8.50978 241.739 8.51156 240.926 8.57283C240.572 8.21595 240.202 8.37167 239.818 8.33669C239.439 8.36528 239.064 8.45744 238.661 8.1682C237.902 8.22538 237.138 8.219 236.325 8.28026C235.971 7.92338 235.601 8.0791 235.217 8.04413C234.724 8.01732 234.197 8.24886 233.734 7.90015C232.867 7.96549 231.941 7.97136 231.073 8.03671C230.719 7.67983 230.35 7.83555 229.965 7.80058C229.473 7.77377 228.945 8.00531 228.483 7.65659C227.507 7.73011 226.581 7.73598 225.605 7.8095C225.251 7.45262 224.827 7.61242 224.389 7.58153C223.842 7.55881 223.314 7.79034 222.797 7.44572C221.768 7.52332 220.787 7.53327 219.757 7.61087C219.398 7.19043 218.979 7.41379 218.541 7.3829C217.831 7.37244 217.092 7.68387 216.408 7.28793C215.269 7.3737 214.126 7.39591 212.988 7.48168C212.629 7.06124 212.21 7.2846 211.771 7.25371C210.954 7.25141 210.11 7.63458 209.313 7.18325C208.012 7.28127 206.706 7.31573 205.351 7.41784C204.938 7.00148 204.465 7.22893 204.026 7.19804C202.987 7.14851 201.932 7.61158 200.918 7.17658C199.292 7.29911 197.715 7.35399 196.089 7.47652C195.789 7.11556 195.414 7.20771 195.035 7.2363C193.788 7.33024 192.596 7.42009 191.349 7.51403C190.969 7.54262 190.59 7.57121 190.191 7.34555C187.535 7.54568 184.929 7.67816 182.273 7.87829C181.919 7.52141 181.544 7.61356 181.165 7.64215C177.425 7.92397 173.684 8.20578 169.998 8.48352C169.565 8.51619 169.082 8.61651 168.678 8.32728C164.45 8.64585 160.277 8.96034 156.049 9.27892C155.698 9.68889 155.201 9.59852 154.767 9.6312C151.081 9.90893 147.449 10.1826 143.763 10.4603C143.384 10.4889 142.946 10.458 142.703 10.8598C140.21 11.0477 137.667 11.3032 135.174 11.4911C134.872 11.8334 134.488 11.7984 134.054 11.8311C132.699 11.9332 131.344 12.0353 129.989 12.1374C129.61 12.166 129.28 12.127 128.983 12.5329C127.194 12.6676 125.41 12.866 123.622 13.0008C123.32 13.3431 122.936 13.3081 122.502 13.3408C121.527 13.4143 120.605 13.4838 119.63 13.5573C119.304 13.5818 118.979 13.6063 118.732 13.9445C117.431 14.0425 116.135 14.2041 114.78 14.3062C113.956 14.9437 112.951 14.6358 112.089 14.7647C111.66 14.861 111.158 14.707 110.812 15.1806C109.565 15.2745 108.323 15.432 107.077 15.5259C106.464 16.0835 105.682 15.8228 104.982 15.9395C104.607 16.0316 104.105 15.8777 103.813 16.3472C102.729 16.4288 101.65 16.5741 100.62 16.6517C100.166 17.1334 99.5549 16.9876 99.0129 17.0285C98.4756 17.1329 97.865 16.9871 97.4107 17.4688C96.5434 17.5342 95.6267 17.6672 94.7594 17.7325C94.3545 18.1466 93.8029 18.0603 93.3151 18.0971C92.9356 18.1257 92.4972 18.0948 92.2549 18.4966C91.3876 18.5619 90.4709 18.6949 89.6037 18.7603C89.1446 19.1784 88.5929 19.0921 88.0509 19.133C87.6763 19.2251 87.174 19.0712 86.8823 19.5406C86.1777 19.5937 85.4778 19.7104 84.7731 19.7635C84.3682 20.1776 83.8166 20.0913 83.3288 20.128C82.9493 20.1566 82.5109 20.1257 82.2686 20.5275C81.5098 20.5847 80.7557 20.7055 79.9426 20.7667C79.5871 21.1131 79.1487 21.0822 78.7693 21.1108C78.444 21.1353 78.0598 21.1004 77.7633 21.5063C77.0587 21.5594 76.3588 21.676 75.6541 21.7291C75.2986 22.0755 74.8602 22.0446 74.4808 22.0732C74.1555 22.0977 73.7713 22.0628 73.529 22.4646C71.6621 22.2856 70.0186 23.624 68.107 23.5763C66.5797 23.5635 65.1641 24.3094 63.7197 24.674C62.7042 24.9423 61.6839 25.147 60.7178 25.3476C60.3623 25.694 59.9239 25.6632 59.5444 25.6917C59.2192 25.7163 58.835 25.6813 58.5927 26.0831C56.6907 26.1625 55.0376 27.3738 53.1165 27.1989C52.2668 28.2218 50.9627 27.553 50.0795 28.1309C49.1421 28.7129 48.2159 28.7188 47.2497 28.9194C46.9485 29.2618 46.5642 29.2268 46.1306 29.2595C45.8054 29.284 45.4801 29.3085 45.2331 29.6467C43.4841 29.5867 42.0032 30.9129 40.2447 30.7258C39.2372 31.8245 37.8741 31.0962 36.8283 31.6864C35.6789 32.3483 34.3444 32.0014 33.3034 32.6552C32.3119 33.2413 31.2532 32.9375 30.3653 33.4519C29.2159 34.1138 27.8862 33.8304 26.8405 34.4206C25.9031 35.0027 24.8445 34.6989 24.0107 35.2092C22.8119 35.9388 21.4185 35.5324 20.4317 36.182C19.4401 36.7682 18.4995 36.5833 17.5971 36.907C16.2708 37.3905 14.8662 37.5603 13.535 37.9802C12.7363 38.2322 11.8834 38.4882 11.0257 38.6807C10.5762 39.2259 9.83802 38.8341 9.3885 39.3794C8.43197 39.7071 7.72731 39.7602 7.02264 39.8133C6.72136 40.1557 6.22394 40.0653 5.92745 40.4712C5.16858 40.5284 4.40971 40.5855 3.70984 40.7022C2.63053 40.8475 1.68032 40.5355 0.800191 39.7069C0.736407 39.5838 0.578582 39.6596 0.470173 39.6678C0.422277 39.0322 0.374382 38.3965 0.326487 37.7609C1.08839 36.2971 2.1788 35.5757 3.62317 35.2112C4.58449 34.947 5.46765 34.369 6.56133 34.4144C7.05396 34.4413 7.47802 34.2814 7.76972 33.812C9.22846 33.6382 10.6489 32.9558 12.0933 32.5913C13.3256 32.3066 14.6807 32.2045 15.8158 31.3519C15.9194 31.2802 16.0772 31.2043 16.2398 31.1921C17.1071 31.1267 17.8962 30.7477 18.7491 30.4916C19.9177 30.0839 21.1054 29.9305 22.274 29.5228C23.8666 28.9554 25.5325 28.6381 27.1108 27.8799C27.4264 27.7283 27.8059 27.6997 28.1853 27.6711C28.89 27.618 29.5946 27.5649 30.2658 27.0668C30.7791 26.6446 31.4981 26.7822 32.0944 26.7373C32.587 26.7641 33.0701 26.6638 33.357 26.1307C33.7762 25.9074 34.2147 25.9383 34.7025 25.9015C35.1361 25.8688 35.5108 25.7767 35.8711 25.4938C35.9747 25.4221 36.0735 25.2868 36.1819 25.2786C37.6008 25.2996 38.8251 24.1845 40.244 24.2055C40.8451 24.2241 41.3823 24.1197 41.8366 23.638C41.9403 23.5662 42.0439 23.4945 42.1523 23.4863C43.7386 23.5586 45.0809 22.5625 46.5986 22.4481C46.707 22.44 46.8744 22.4913 46.9732 22.356C48.0493 21.4439 49.5065 21.9733 50.5523 21.3831C51.9631 20.5736 53.5782 21.0273 54.9204 20.0312C55.3843 19.6766 56.1034 19.8142 56.6996 19.7693C57.4489 19.585 58.3545 20.0281 58.9427 19.1528C59.3078 18.9335 59.6872 18.9049 60.0666 18.8763C60.6087 18.8355 61.1507 18.7946 61.605 18.3129C61.7087 18.2412 61.8123 18.1695 61.9207 18.1613C63.6696 18.2213 65.2095 16.9546 67.0174 17.0741C67.5643 17.0968 68.0378 16.8693 68.5607 16.5742C69.498 15.9922 70.6061 16.2284 71.6854 16.0831C72.4347 15.8988 73.3403 16.342 73.9285 15.4666C74.555 15.0998 75.274 15.2374 75.9739 15.1207C76.7231 14.9364 77.6287 15.3796 78.2169 14.5042C78.8435 14.1374 79.5625 14.275 80.2623 14.1583C81.0116 13.974 81.9172 14.4172 82.5006 13.4783C83.344 13.0951 84.2256 13.2204 85.0387 13.1592C85.5265 13.1224 85.9554 13.0262 86.448 13.053C86.8864 13.0839 87.2515 12.8646 87.4938 12.4628C88.4455 12.0715 89.4356 12.1886 90.4113 12.1151C91.0075 12.0702 91.599 11.9617 92.2 11.9803C92.6337 11.9477 92.9493 11.796 93.1916 11.3942C94.1975 10.9988 95.2418 11.1119 96.3211 10.9666C96.9174 10.9217 97.5088 10.8132 98.1099 10.8319C98.5435 10.7992 98.8592 10.6475 99.1014 10.2457C100.107 9.85031 101.206 9.95932 102.231 9.81815C103.098 9.75281 104.02 9.68337 104.887 9.61802C105.321 9.58535 105.636 9.43371 105.883 9.09547C106.939 8.6324 108.096 8.80089 109.23 8.65155C110.151 8.58212 111.018 8.51677 111.94 8.44734C112.374 8.41466 112.689 8.26303 112.931 7.86122C114.258 7.37773 115.632 7.52988 116.982 7.36421C118.121 7.27844 119.259 7.19267 120.397 7.1069C120.831 7.07422 121.147 6.92259 121.394 6.58435C122.883 6.0886 124.474 6.22441 125.987 6.04649C127.505 5.93213 129.022 5.81777 130.54 5.70341C130.974 5.67073 131.348 5.57858 131.645 5.17269C131.956 4.95749 132.281 4.93298 132.606 4.90848C134.991 4.72877 137.322 4.55315 139.707 4.37344C142.688 4.1488 145.615 3.92825 148.596 3.70361C148.976 3.67502 149.419 3.76948 149.657 3.30411C157.679 2.69963 165.701 2.09516 173.669 1.49477C173.974 1.9193 174.398 1.75949 174.777 1.7309C177.325 1.53894 179.873 1.34698 182.42 1.15502C182.854 1.12234 183.283 1.02611 183.637 1.38299C185.982 1.39806 188.367 1.21835 190.698 1.04272C190.993 1.34012 191.318 1.31562 191.643 1.29111C192.781 1.20534 193.92 1.11957 195.058 1.0338C195.437 1.00521 195.817 0.976621 196.216 1.20229C197.896 1.07568 199.581 1.01263 201.261 0.886014C201.674 1.30237 202.148 1.07492 202.586 1.10581C203.517 1.16351 204.41 0.712689 205.316 1.15586C206.671 1.05375 208.085 1.01112 209.44 0.909014C209.799 1.32946 210.218 1.10609 210.656 1.13698C211.42 1.14337 212.209 0.76428 212.952 1.2197C214.145 1.12984 215.342 1.10355 216.535 1.0137C216.947 1.43006 217.421 1.20261 217.859 1.2335C218.623 1.23988 219.363 0.928447 220.047 1.32439C220.914 1.25904 221.84 1.25317 222.708 1.18782C223.066 1.60826 223.486 1.3849 223.924 1.41579C224.579 1.43034 225.211 1.12707 225.895 1.52301C226.87 1.44949 227.796 1.44362 228.772 1.37011C229.126 1.72699 229.55 1.56719 229.989 1.59808C230.535 1.6208 231.063 1.38926 231.58 1.73389C232.284 1.68079 232.989 1.6277 233.698 1.63817C234.057 2.05861 234.476 1.83524 234.915 1.86613C235.462 1.88885 235.989 1.65732 236.506 2.00195C237.373 1.9366 238.3 1.93073 239.167 1.86538C239.521 2.22226 239.891 2.06654 240.275 2.10152C240.654 2.07293 241.029 1.98077 241.432 2.27C241.974 2.22916 242.516 2.18832 243.063 2.21104C244.699 2.21564 246.328 2.85997 247.935 2.48318C248.289 2.84006 248.659 2.68434 249.043 2.71932C249.423 2.69073 249.802 2.66214 250.201 2.8878C250.743 2.84696 251.29 2.86968 251.832 2.82884C253.295 2.71857 254.727 3.63349 256.162 3.14183C256.516 3.49871 256.886 3.34299 257.27 3.37796C257.649 3.34937 258.024 3.25722 258.427 3.54645C258.969 3.5056 259.512 3.46476 260.004 3.49157C260.304 3.85253 260.728 3.69273 261.112 3.72771C261.492 3.69912 261.866 3.60696 262.27 3.89619C263.029 3.83901 263.985 3.51124 264.61 3.8477C265.52 4.35443 266.319 4.10247 267.196 4.16425C267.496 4.52521 267.87 4.43306 268.196 4.40856C268.629 4.37588 269.058 4.27964 269.407 4.57296C271.127 4.25157 272.79 5.34085 274.501 4.89233C275.494 5.77636 276.684 4.91965 277.643 5.35873C278.825 5.84504 279.989 5.3738 280.998 5.74523C282.007 6.11667 283.013 5.72124 283.81 6.17258C284.888 6.73062 285.899 6.39876 286.943 6.51185C287.297 6.86873 287.775 6.70485 288.124 6.99816C289.677 6.62546 291.153 7.40917 292.686 7.4855C293.562 7.54728 294.592 7.46968 295.385 7.85745C296.344 8.29653 297.296 7.90519 298.143 8.28888C299.103 8.72796 300.163 8.32845 300.955 8.71622C301.861 9.15939 302.966 8.62867 303.551 9.15991C304.539 9.98037 305.714 8.93297 306.505 10.024C306.564 10.0835 306.618 10.0794 306.672 10.0753C308.004 9.65542 309.402 10.1254 310.529 10.6158C311.765 11.098 313.126 10.3562 314.242 11.4227C314.242 11.4227 314.296 11.4186 314.351 11.4146C315.519 11.0069 316.71 11.6203 317.665 11.9958C318.955 12.474 320.316 11.7321 321.432 12.7987C321.432 12.7987 321.487 12.7946 321.541 12.7905C322.709 12.3829 323.802 13.1316 324.91 13.3677C325.904 13.5485 327.087 13.3315 328.022 14.156C328.081 14.2155 328.135 14.2114 328.189 14.2073C329.254 13.8714 330.273 14.37 331.174 14.7496C332.188 15.1846 333.347 14.6498 334.236 15.6055C334.295 15.665 334.35 15.6609 334.404 15.6568C335.577 15.3127 336.669 16.0615 337.827 16.23C338.541 16.304 339.571 16.2264 340.229 17.0078C340.288 17.0673 340.401 17.1227 340.456 17.1186C341.521 16.7826 342.594 17.2771 343.391 17.7285C344.414 18.2906 345.46 17.7004 346.395 18.5249C346.862 18.9372 347.734 18.9354 348.281 18.9581C349.271 19.0753 350.374 19.2479 351.225 19.6951C352.19 20.1978 353.205 19.9295 354.224 20.4281C354.849 20.7645 355.79 20.9493 356.622 21.1423C357.454 21.3353 358.381 21.3295 359.084 21.9797C359.143 22.0391 359.256 22.0945 359.31 22.0904C360.267 21.7627 361.132 22.4006 361.92 22.7248C362.653 23.0531 363.525 23.0513 364.264 23.4432C364.943 23.7756 365.829 23.9645 366.661 24.1575C367.494 24.3505 368.42 24.3446 369.123 24.9948C369.182 25.0543 369.295 25.1097 369.35 25.1056C370.252 24.7819 370.974 25.6863 371.905 25.744C372.398 25.7708 373.122 25.972 373.598 26.5114C373.662 26.6344 373.83 26.6858 373.884 26.6817C374.786 26.358 375.602 27.0636 376.385 27.3242C377.503 27.6875 378.813 27.7166 379.757 28.6683C379.875 28.7872 380.038 28.775 380.201 28.7627C381.073 28.7609 381.816 29.2164 382.563 29.7353C382.677 29.7907 382.79 29.8461 382.898 29.838C383.824 29.8321 384.582 30.4782 385.424 30.7983C386.093 31.0036 386.688 31.6619 387.491 31.4736C388.024 31.3056 388.501 31.845 388.899 32.0707C390.208 32.8031 391.637 32.9511 392.837 33.6917C394.092 34.4282 395.441 34.9658 396.75 35.6982C397.655 36.1414 398.615 36.5804 399.575 37.0195C400.481 37.4627 401.485 37.7705 402.301 38.4761C402.655 38.833 403.202 38.8557 403.601 39.0814C404.91 39.8138 406.219 40.5462 407.523 41.215C408.66 41.8326 409.761 42.7084 410.997 43.1907C411.671 43.4595 412.351 43.7918 412.936 44.3231C413.467 44.8584 414.141 45.1272 414.811 45.3324C415.146 45.4351 415.224 45.7488 415.45 45.8596C416.523 46.3541 417.507 47.111 418.481 47.7408C419.342 48.3151 420.262 48.949 421.177 49.5193C421.979 50.0342 422.647 50.9427 423.583 51.064C423.967 51.099 423.942 51.4844 424.173 51.6588C426.501 52.8897 428.353 55.0515 430.093 57.1578C430.874 58.1217 431.922 59.0016 432.407 60.3715C432.676 61.0543 433.32 61.6451 433.757 62.3792C434.126 62.9268 434.444 63.542 434.704 64.0978C435.347 65.3918 435.891 66.8211 436.326 68.2586C436.825 69.8191 436.832 71.3528 437.06 72.9337C437.283 74.4511 436.901 75.8863 436.405 77.2661C436.182 77.9221 436.412 78.7998 435.972 79.4722C435.828 79.7387 435.64 80.1364 435.502 80.4665C434.367 83.4926 432.175 85.5115 430.514 88.0659C429.286 88.4141 428.855 89.9169 427.814 90.5706C426.98 91.0809 426.283 91.9645 425.464 92.6654C424.694 93.2988 423.988 94.0552 423.218 94.6885C422.394 95.3259 421.442 95.7173 420.74 96.5372C420.439 96.8796 419.916 97.1747 419.546 97.3304C418.491 97.7935 417.715 99.0665 416.458 99.0333C416.25 99.8801 415.413 99.6235 414.963 100.169C414.563 100.646 413.681 100.521 413.128 101.138C412.472 101.827 411.427 101.714 410.775 102.466C410.37 102.88 409.616 103.001 409.138 103.165C408.231 103.425 407.456 103.995 406.554 104.318C405.489 104.654 404.296 104.744 403.437 105.64C403.388 105.708 403.334 105.712 403.279 105.716C402.063 105.488 400.972 106.209 400.089 106.787C398.89 107.517 397.429 106.924 396.485 108.145C396.435 108.213 396.381 108.217 396.327 108.221C394.578 108.161 393.097 109.487 391.339 109.3C390.821 109.659 390.269 109.573 390.027 109.974Z" fill="#2ACC32"/>
</svg>
